<svg width="88" height="45" viewBox="0 0 88 45" fill="none" xmlns="http://www.w3.org/2000/svg">
<path d="M87.44 13.576C84.3803 9.2911 80.3227 5.81612 75.6183 3.4517C70.9138 1.08729 65.7042 -0.0953759 60.44 0.00601026C68.44 19.306 50.34 22.926 50.34 22.926C51.85 19.156 48.08 16.436 48.08 16.436C45.08 18.096 46.08 22.776 46.08 22.776C43.52 21.566 40.66 23.076 40.66 23.076C40.8147 21.8288 40.6458 20.5628 40.1694 19.3999C39.693 18.2369 38.9252 17.2162 37.94 16.436C34.63 19.156 36.57 23.976 36.57 23.976C18.78 16.746 29.07 0.346007 29.07 0.346007C6.23001 7.10601 0 19.726 0 19.726C24.12 10.936 17.18 31.986 13.75 35.536C24.89 24.416 26.54 38.536 26.54 38.536C28.34 29.646 35.43 30.536 35.43 30.536C37.84 39.436 44.32 39.436 44.32 39.436L45.38 44.106L46.43 39.436C48.2847 38.5175 49.8218 37.0645 50.8431 35.2643C51.8644 33.4641 52.323 31.3993 52.16 29.336C58.34 26.926 61.49 34.106 61.49 34.106C62.08 16.866 77.34 25.866 77.34 25.866C68.74 8.29601 87.44 13.576 87.44 13.576ZM37.24 26.576C40.24 24.966 42.36 27.756 42.36 27.756C38.77 29.306 37.23 26.586 37.23 26.586L37.24 26.576ZM44.78 27.736C44.78 27.736 45.83 24.876 49.6 25.476C49.6 25.486 48.54 28.046 44.78 27.726V27.736Z" fill="#404040"/>
</svg>
