<svg width="58" height="72" viewBox="0 0 58 72" fill="none" xmlns="http://www.w3.org/2000/svg">
<path d="M34.0781 6.44C34.5685 5.3757 34.7184 4.18594 34.5072 3.03328C34.296 1.88062 33.734 0.821279 32.8981 0C29.0881 1.84 29.8981 6.18001 29.8981 6.18001C27.4081 4.99001 24.2481 6.44 24.2481 6.44C24.1819 5.1945 23.6659 4.01536 22.796 3.12154C21.9261 2.22772 20.7614 1.67996 19.5181 1.58C19.2834 2.61 19.2922 3.68055 19.544 4.70653C19.7957 5.7325 20.2833 6.6856 20.9681 7.49001C-9.96191 29.97 2.46809 71.94 2.46809 71.94C-2.62191 53.19 12.8981 48.28 12.8981 48.28C-1.56186 30.28 16.4881 29.18 16.4881 29.18C12.2781 17.96 20.7481 12.7 20.7481 12.7C21.9781 23.83 28.0581 24.51 28.0581 24.51L29.2781 29.35L30.1581 24.51C36.1581 20.89 34.1581 11.65 34.1581 11.65C45.5481 12.88 39.4181 27.07 39.4181 27.07C59.7481 28.83 46.4181 47.75 46.4181 47.75C58.6881 49.86 55.0081 70.19 55.0081 70.19C67.4981 14.58 34.0781 6.44 34.0781 6.44ZM22.1681 8.85001C23.0853 8.81878 23.9962 9.01305 24.8209 9.41579C25.6455 9.81853 26.3588 10.4174 26.8981 11.16C26.433 11.3237 25.9398 11.3923 25.4476 11.3616C24.9555 11.331 24.4745 11.2018 24.0333 10.9816C23.5921 10.7615 23.1997 10.4549 22.8793 10.0802C22.5589 9.7054 22.317 9.27006 22.1681 8.8V8.85001ZM28.2481 11.1C28.2481 11.1 29.4781 7.94001 32.7181 8.29001C32.7181 8.24001 31.3981 11.44 28.2481 11.05V11.1Z" fill="#404040"/>
</svg>
