<svg width="33" height="80" viewBox="0 0 33 80" fill="none" xmlns="http://www.w3.org/2000/svg">
<g opacity="0.2">
<path d="M14.565 62.4041C14.565 62.4041 14.565 56.1217 18.5336 57.584C22.5022 59.0463 20.0994 63.3519 20.0994 63.3519C20.0994 63.3519 24.608 72.7756 14.2681 74.8607C14.2141 74.8607 7.95071 69.851 14.565 62.4041Z" fill="white"/>
<path d="M20.2888 63.726C22.6007 61.8113 25.0734 60.1067 27.6785 58.6317C29.0503 58.3799 30.4654 58.6423 31.6614 59.3703L32.2125 58.3515C30.7019 57.4519 28.9173 57.1525 27.2025 57.5109C24.4885 59.0623 21.9076 60.8431 19.4871 62.8345L20.2888 63.726Z" fill="white"/>
<path d="M31.046 68.4994L32.2125 68.1519C32.2125 67.9113 30.5158 62.2437 27.1489 62.1367C24.4859 62.3479 21.8864 63.0645 19.4871 64.2487L20.0174 65.3715C22.2314 64.2617 24.6326 63.5816 27.0958 63.3665C29.1902 63.4467 30.6484 67.1092 31.046 68.4994Z" fill="white"/>
<path d="M29.5057 76.4503L30.6217 76.0756C30.292 75.1263 27.4005 66.7827 23.5706 66.9076C20.324 66.9076 19.5377 67.707 19.487 68.2816L20.6284 68.4315C20.6434 68.4888 20.6434 68.549 20.6284 68.6063C20.6284 68.6063 21.0849 68.1317 23.6467 68.0568C26.2084 67.9818 28.3643 73.1778 29.5057 76.4503Z" fill="white"/>
<path d="M25.81 79.6319C25.81 79.3345 26.4971 72.4942 22.1201 71.2235L18.2012 70.0879L17.8959 71.2775L21.8148 72.4401C25.2247 73.4135 24.6394 79.4427 24.6394 79.4968L25.81 79.6319Z" fill="white"/>
<path d="M13.503 63.7254H14.7145C13.5557 53.3186 7.41948 51.0809 7.15613 51L6.76111 52.1863C6.99813 52.1324 12.4496 54.1544 13.503 63.7254Z" fill="white"/>
<path d="M13.5813 65.3166L14.7145 64.7791C13.322 62.3447 11.6355 60.0508 9.68448 57.9374C7.39059 55.9093 1.53154 59.8433 0.398417 60.6496L1.19984 61.5293C3.68719 59.77 7.66695 57.7664 8.80007 58.7437C10.6492 60.781 12.2517 62.984 13.5813 65.3166Z" fill="white"/>
<path d="M1.27658 66.9087C3.35215 65.2105 7.29035 62.766 8.96676 63.5122C10.7474 64.4062 12.3872 65.5413 13.8364 66.883L14.7145 65.9824C13.1415 64.5254 11.3467 63.3105 9.39253 62.3801C6.46545 61.0678 1.01044 65.4678 0.398417 65.9567L1.27658 66.9087Z" fill="white"/>
<path d="M1.24195 71.6783C1.46668 71.4285 6.86023 65.9332 12.4785 69.5863L13.1246 68.3374C6.83217 64.1223 0.48352 70.5543 0.399245 70.6167L1.24195 71.6783Z" fill="white"/>
<path d="M18.5596 0.300066C18.6953 0.352537 18.8425 0.400106 18.9996 0.442204V58H17.9996V0L18.5596 0.300066Z" fill="white"/>
</g>
</svg>
