<svg width="145" height="40" viewBox="0 0 145 40" fill="none" xmlns="http://www.w3.org/2000/svg">
<path fill-rule="evenodd" clip-rule="evenodd" d="M137.902 21.5551C137.528 21.5835 137.153 21.5835 136.779 21.5551C130.385 20.8694 123.924 21.1898 117.63 22.5047C117.148 22.5069 116.672 22.6195 116.24 22.834C115.809 23.0485 115.432 23.3592 115.139 23.742C114.243 24.8713 113.644 26.2068 113.397 27.6267C113.363 28.0246 113.412 28.4253 113.542 28.8032C113.671 29.181 113.878 29.5278 114.149 29.8215C114.419 30.1152 114.749 30.3493 115.115 30.5089C115.481 30.6686 115.877 30.7503 116.276 30.7489C122.034 30.889 127.755 31.7002 133.323 33.166C137.285 34.0085 140.979 35.812 144.079 38.4175C144.359 38.6747 144.619 38.9537 144.856 39.252C144.971 39.3815 144.957 39.5829 145 39.77C144.654 40.1872 144.28 39.9426 144.021 39.77C140.508 36.7054 136.232 35.3529 131.826 34.2739C126.497 33.0333 121.055 32.3343 115.585 32.1876C108.978 31.7968 102.355 31.7728 95.7452 32.1157C89.7269 32.5617 83.7087 33.2235 77.7048 33.8134C76.5486 33.8578 75.4273 34.2213 74.4653 34.8637C73.9448 35.3057 73.2839 35.5484 72.6008 35.5484C71.9177 35.5484 71.2568 35.3057 70.7363 34.8637C69.7696 34.2356 68.6608 33.8596 67.5112 33.7703C52.578 31.7261 37.4643 31.3401 22.4462 32.6193C18.145 33.0372 13.8989 33.9003 9.77614 35.1947C6.70517 36.0153 3.84714 37.4875 1.39664 39.511C1.08574 39.7177 0.746155 39.8776 0.388763 39.9858C0.388763 39.9858 0.244766 39.8994 2.26254e-08 39.7412C0.300049 39.3093 0.632141 38.9005 0.993454 38.5182C4.06026 35.879 7.74513 34.0577 11.7054 33.2235C17.1766 31.759 22.8021 30.9477 28.4644 30.8064C29.4291 30.8064 30.3937 30.8064 31.0272 29.8856C31.4018 29.3819 31.6399 28.79 31.7181 28.1673C31.7963 27.5447 31.712 26.9124 31.4735 26.3318C31.1478 25.6379 30.7874 24.9608 30.3937 24.3031C30.1402 23.8411 29.7812 23.4452 29.3459 23.1478C28.9106 22.8503 28.4113 22.6595 27.8885 22.591C21.5968 21.2644 15.1387 20.9102 8.73946 21.5407C8.13825 21.5562 7.5367 21.5274 6.93974 21.4544C8.35668 20.5151 10.0195 20.0146 11.7198 20.0156C13.8253 19.9076 15.935 19.9076 18.0405 20.0156C19.4784 20.08 20.8907 19.6198 22.0143 18.7207C23.0167 18.0625 23.8772 17.2103 24.5448 16.2145C25.2125 15.2187 25.6738 14.0993 25.9016 12.9224C26.4231 10.679 26.6314 8.37433 26.5207 6.07387C26.5133 5.54705 26.3786 5.02982 26.1279 4.56633C25.8772 4.10285 25.5179 3.70685 25.0809 3.41213C23.8427 2.54886 22.6333 1.62804 21.4671 0.793557C21.6543 -0.0697091 22.1582 -0.0984833 22.6045 0.102948C23.5708 0.510983 24.5045 0.991967 25.3977 1.54172C27.24 2.75404 29.2899 3.61729 31.4448 4.08835C33.0334 4.41578 34.5861 4.89766 36.0808 5.52713C39.946 7.22889 44.1104 8.14823 48.3333 8.23203C60.7154 8.47662 73.0831 8.7356 85.4508 8.1457C90.9076 7.87234 96.3643 7.4407 101.807 6.98029C105.148 6.55468 108.519 6.4103 111.885 6.54867C112.554 6.59021 113.214 6.37395 113.728 5.94438C115.6 4.59193 117.428 3.19632 119.329 1.90142C120.371 1.22838 121.453 0.618212 122.568 0.0741786C122.838 0.0077419 123.119 0.00774192 123.389 0.0741787C123.438 0.0796414 123.484 0.0987568 123.522 0.129313C123.56 0.159864 123.589 0.200609 123.605 0.246832C123.605 0.405096 123.72 0.664076 123.605 0.764792C123.355 1.05282 123.075 1.31329 122.77 1.54173C121.92 2.1604 121.085 2.80785 120.207 3.38336C119.759 3.66642 119.386 4.05378 119.12 4.51232C118.854 4.97085 118.704 5.4869 118.681 6.01632C118.397 9.36921 118.982 12.7386 120.38 15.8C121.468 17.6321 123.126 19.0573 125.102 19.8573C125.653 20.0216 126.233 20.061 126.801 19.9724L133.122 19.9724C134.85 19.935 136.538 20.4939 137.902 21.5551ZM88.0856 22.8931C86.9406 22.7765 85.7861 22.9913 84.7597 23.5118C79.6964 25.0405 74.3606 25.448 69.1237 24.706C66.2442 24.3175 63.2782 23.6845 60.3699 23.1233C59.3537 22.8376 58.2871 22.7786 57.2456 22.9507C59.3188 24.3895 61.0897 25.6556 62.875 26.8929C65.5386 28.749 68.2167 30.5762 70.8803 32.461C71.1195 32.6985 71.4046 32.8846 71.7184 33.0081C72.0321 33.1315 72.3678 33.1896 72.7048 33.1788C73.0418 33.168 73.3731 33.0886 73.6783 32.9454C73.9835 32.8022 74.2562 32.5982 74.4797 32.3459C75.3148 31.7128 76.1498 31.0654 77.0137 30.4611C80.6707 27.9145 84.5869 25.6988 88.0136 22.8212L88.4599 22.6485L88.1864 22.4615C88.1576 22.5622 88.1144 22.7061 88.0856 22.85L88.0856 22.8931ZM110.431 7.64214C109.481 7.64214 108.991 7.64214 108.386 7.64214C103.995 8.05938 99.6182 8.60611 95.2125 8.92264C84.3134 9.6708 73.3999 10.0305 62.472 9.92978C57.4903 9.92978 52.5087 9.58447 47.5271 9.57008C43.7023 9.48737 39.929 8.67169 36.412 7.16733C35.3466 6.7357 34.2955 6.2609 33.2157 5.84366C32.7059 5.70008 32.1861 5.59428 31.6607 5.52713C31.9343 5.97315 32.0062 6.28968 32.2078 6.40478C35.1594 8.36151 38.1397 10.2895 41.1056 12.1599C41.2742 12.25 41.4473 12.3316 41.624 12.4045C45.7725 14.4294 50.3251 15.4918 54.942 15.5122C59.5348 15.4115 64.1421 15.5122 68.735 15.5122C75.2568 15.5656 81.7721 15.0844 88.2152 14.0735C92.2754 13.3541 96.3355 12.6539 100.396 11.9728C102.098 11.8942 103.788 11.6337 105.435 11.1959C107.058 10.37 108.584 9.36628 109.985 8.20326C110.145 8.02566 110.294 7.83826 110.431 7.64214ZM47.0807 16.5338C48.6501 17.5553 50.2339 18.5337 51.7744 19.5983C52.8138 20.2854 53.9863 20.7462 55.2155 20.9508C58.8725 21.6702 62.5296 22.3896 66.201 23.1233C72.6192 24.4091 79.2595 24.0377 85.494 22.0443C86.9338 21.5695 88.3735 21.0659 89.8133 20.6055C91.9154 19.958 94.1327 19.4976 95.6732 17.7279C95.8202 17.6119 95.9931 17.5329 96.1771 17.4977C98.1098 16.6533 99.9015 15.5179 101.49 14.131C101.94 13.6843 102.353 13.2033 102.728 12.6922L96.825 13.7425C89.9001 15.2539 82.8665 16.2161 75.7899 16.6201C70.6211 16.7496 65.4523 16.8215 60.2835 16.8647C55.9139 17.0702 51.5352 16.9596 47.1815 16.5338L47.0807 16.5338ZM96.6667 19.6271C97.185 21.3537 97.257 21.5839 98.1064 21.9436C99.431 22.4759 100.784 22.9507 102.152 23.3823C103.614 23.8612 105.183 23.9111 106.673 23.5262C108.804 23.0082 110.992 22.6054 113.109 22.0874C113.494 21.9163 113.856 21.6988 114.189 21.44L112.475 20.4616C111.773 20.0608 111.158 19.5252 110.663 18.8857C110.169 18.2462 109.806 17.5153 109.596 16.7352C109.338 15.6223 109.16 14.4923 109.063 13.3541C108.977 12.721 109.294 12.0016 108.53 11.3973C104.902 13.3972 101.922 16.433 98.2792 18.4905C97.7538 18.84 97.2491 19.2195 96.7675 19.6271L96.6667 19.6271ZM36.196 11.2247C36.196 12.2606 36.0521 12.98 36.0233 13.6994C35.8361 16.8647 34.7563 19.4545 31.7039 20.8932C31.3728 21.0515 30.9984 21.2385 31.3007 21.9579C33.59 22.4471 36.0088 22.9363 38.4132 23.5118C39.9146 23.8739 41.4884 23.799 42.9486 23.296C44.23 22.8931 45.4826 22.4327 46.7352 21.8572C47.2471 21.6795 47.6817 21.3301 47.9651 20.8685C48.2486 20.407 48.3634 19.8616 48.2902 19.325C44.2012 17.2388 40.7746 13.8864 36.3256 11.2247L36.196 11.2247ZM123.159 20.1163C122.323 19.3969 121.92 19.0085 121.474 18.6775C119.918 17.5258 118.805 15.8751 118.321 14.0015C117.677 11.8932 117.295 9.71398 117.183 7.51265C117.118 6.9968 117.012 6.48688 116.867 5.98754L110.633 10.0449C110.423 11.8694 110.466 13.7141 110.762 15.5266C111.085 17.2374 112.059 18.7565 113.479 19.7652C114.9 20.7738 116.655 21.1936 118.378 20.9364C119.789 20.7781 121.186 20.4904 123.159 20.1163ZM28.4788 6.07387C27.9461 8.80753 27.5286 11.2391 27.0391 13.6562C26.6156 15.7439 25.4039 17.5884 23.6555 18.807C23.2524 19.1092 22.5757 19.3106 22.7629 20.2458C24.2027 20.5048 25.844 20.8789 27.4277 21.0083C29.1235 21.1406 30.8054 20.6173 32.1262 19.5463C33.447 18.4754 34.306 16.9387 34.5259 15.2532C34.8211 13.4669 34.8211 11.6442 34.5259 9.85784L28.4788 6.07387ZM114.016 23.6269C113.627 23.5406 113.44 23.4255 113.282 23.4687C110.215 24.1593 107.163 24.9074 104.096 25.5693C103.541 25.6829 103.001 25.8566 102.483 26.0872C102.189 26.1922 101.927 26.3728 101.724 26.6108C101.521 26.8488 101.384 27.136 101.327 27.4434C101.27 27.7509 101.295 28.0679 101.4 28.3627C101.504 28.6575 101.684 28.9197 101.922 29.123C102.228 29.4862 102.61 29.7794 103.039 29.9829C103.469 30.1865 103.937 30.2955 104.413 30.3028C106.788 30.3028 109.178 30.4611 111.612 30.5186C112.007 30.4608 112.394 30.3545 112.763 30.2021C112.202 29.1324 112.02 27.9038 112.247 26.7173C112.475 25.5308 113.098 24.4565 114.016 23.6701L114.016 23.6269ZM32.7838 30.4899C35.7785 30.4899 38.5428 30.3604 41.2928 30.274C41.7715 30.2246 42.2311 30.06 42.6322 29.7944C43.0334 29.5288 43.3643 29.1701 43.5965 28.7489C43.7293 28.5498 43.8198 28.3257 43.8628 28.0903C43.9057 27.855 43.9 27.6133 43.8461 27.3802C43.7921 27.1471 43.6911 26.9275 43.5491 26.7348C43.4072 26.5422 43.2273 26.3805 43.0206 26.2599C42.5239 25.9778 41.9911 25.7648 41.4368 25.6268C39.7667 25.2096 38.0966 24.8211 36.412 24.447C34.7275 24.0729 33.0861 23.7276 31.2432 23.3248C33.4316 26.7778 33.4317 26.7778 32.7838 30.533L32.7838 30.4899ZM43.8701 24.4326L43.9564 25.0369C47.0088 25.8426 50.0323 26.6771 53.0846 27.4397C53.8326 27.5931 54.5997 27.6319 55.3595 27.5548C56.7992 27.4684 56.9576 27.2382 57.3319 25.2383C54.9657 23.5276 52.5046 21.9521 49.9603 20.5192C48.9867 21.9988 47.4907 23.0572 45.7706 23.483C45.1211 23.7666 44.4868 24.0836 43.8701 24.4326ZM95.2125 20.4184C92.6929 22.0299 90.1877 23.555 87.8984 25.2671C88.3592 27.2382 88.5175 27.4684 89.7413 27.5404C90.5978 27.6297 91.4631 27.5812 92.3041 27.3965C94.9965 26.7347 97.6601 25.9577 100.324 25.2096C100.698 25.1089 101.317 25.2096 101.346 24.4326C100.332 23.7297 99.1859 23.2402 97.9769 22.9939C96.6811 22.591 96.1771 21.368 95.2125 20.4328L95.2125 20.4184ZM99.719 27.0224C94.88 28.0027 90.1562 29.483 85.6236 31.4395L100.468 30.1877C100.208 29.1086 99.9782 28.1159 99.719 27.0368L99.719 27.0224ZM59.4052 31.4251C54.9786 29.462 50.3409 28.0137 45.5834 27.1087C45.3098 28.2022 45.0651 29.1662 44.7771 30.2884L59.4052 31.4251ZM87.9416 28.936L86.1419 26.3462C83.7807 27.785 81.5346 29.2237 79.3174 30.6625C79.0121 30.9077 78.7367 31.1878 78.4967 31.497C81.728 31.0148 84.8926 30.1602 87.9272 28.9504L87.9416 28.936ZM66.7337 31.6265C64.4036 29.5268 61.7363 27.8341 58.8437 26.6196C58.4118 27.3246 57.9654 28.0583 57.4039 28.8784C59.9676 29.9321 62.5872 30.8446 65.2507 31.6121C65.742 31.6856 66.2411 31.6904 66.7337 31.6265Z" fill="#444444"/>
</svg>
