<svg width="139" height="116" viewBox="0 0 139 116" fill="none" xmlns="http://www.w3.org/2000/svg">
<path d="M57 1C61 16 65.0004 29.5 84.2151 68C97.7303 95.0802 131.167 108.667 136 111C136 111 120.5 82 110.5 58.5C100.5 35 92.5 1 92.5 1L81 94C63 76.5 39 61 30.5 1" stroke="#575757"/>
<path d="M104.5 92C117 95 121 89 119 77.5" stroke="#575757"/>
<path d="M89 75.5C99 81 113.6 72.6 110 57" stroke="#575757"/>
<path d="M42.5 45.4998C49 53 61.5 56.5 72 41.4998C80.5 49.5 83.5 45.4998 87.5 41.4998C93 44.3332 100.5 45.4998 103 38.5" stroke="#575757"/>
<path d="M34.5 59C41 65.5 53.5 74.5 58 71.5C68 76 79 80 84 68.5" stroke="#575757"/>
<path d="M7 8C11.8333 36.1667 44.9 96.4 138.5 112C99 113.93 94.5 110.566 60.5 113M7 8L1.5 114.5C6 112 17.4419 111.849 26.5 112.5M7 8L26.5 112.5M7 8C7 38 42 89.3788 60.5 113M26.5 112.5C38.0312 113.329 48.5506 112.223 60.5 113" stroke="#575757"/>
<path d="M2.5 84.4997C5.5 79.6663 14.3 72.8997 21.5 84.4997C24.5 72.5 29 70.5 37 79.499C37.6667 75.6657 41.2 69.299 50 74.499" stroke="#575757"/>
<path d="M2 101.5C7.16667 98.1666 18.5 93.3006 24.5 100.501C24.5 86.5 38.5 86.4998 46 93C47 87.3333 51 77.4002 61 83.0002" stroke="#575757"/>
<path d="M2 107.5C6.5 101.5 22.2 108.9 27 112.5C31.5 107.501 40.5 94.5008 57 108.002C54 102.502 64 86.5014 84.5 96.0016" stroke="#575757"/>
</svg>
