<svg width="315" height="120" viewBox="0 0 315 120" fill="none" xmlns="http://www.w3.org/2000/svg">
<path d="M10 9C83 18.5 229.5 28 307 9.00055" stroke="white" stroke-opacity="0.05"/>
<path d="M265.5 71C258.333 72.3333 243.6 78.4 242 92" stroke="white" stroke-opacity="0.05"/>
<path d="M275.5 37.4995C258 36 247.9 36.3001 237.5 55.5001C217 55.5001 211 66.4999 211 75.4999" stroke="white" stroke-opacity="0.05"/>
<path d="M179 60.4993C181.833 53.9993 190.7 41.4993 203.5 43.4993C204.5 33.5 213 27.5 222.5 27.5C221 20.5 228.6 10.3 241 9.5C241 5 245.5 2 254 2" stroke="white" stroke-opacity="0.05"/>
<path d="M270.501 36.5C264.5 33 259.8 20.7 271 15.5C263.001 13.5 266 9.5 268.001 8.5C264.501 6.5 262.501 4 270 2" stroke="white" stroke-opacity="0.05"/>
<path d="M3.5 3.5C77.6667 8.66667 243.3 15.9 312.5 3.5" stroke="white" stroke-opacity="0.05"/>
<path d="M281 119C222 68 81.1667 19.5 1 2H312C330 5.33333 230.5 28 281 119Z" stroke="white" stroke-opacity="0.05"/>
<path d="M1.5 1C5 1.5 214.5 31.5 266.5 71.5" stroke="white" stroke-opacity="0.05"/>
<path d="M276.5 38C230.167 28.1667 111.5 7.2 7.5 2" stroke="white" stroke-opacity="0.05"/>
<path d="M140.5 44.4999C140 43.4999 143.5 29 152 29.5C143 21 152 18.5 158.999 17C156.5 13.5 160 11.5 163.999 10C160 6.5 162.999 2 162.999 2" stroke="white" stroke-opacity="0.05"/>
<path d="M203 2.5C199 2.5 196 8.5 198 10.5C193 12 189 18 190 22C173 22.5 173.5 27.5 176.5 35.5C167 35.5 157.5 44 161.5 52.5" stroke="white" stroke-opacity="0.05"/>
</svg>
